<?xml version="1.0" encoding="utf-8"?>
<!-- Generator: Adobe Illustrator 25.0.0, SVG Export Plug-In . SVG Version: 6.00 Build 0)  -->
<svg version="1.1" id="圖層_1" xmlns="http://www.w3.org/2000/svg" xmlns:xlink="http://www.w3.org/1999/xlink" x="0px" y="0px"
	 viewBox="0 0 1000 1000" style="enable-background:new 0 0 1000 1000;" xml:space="preserve">
<path d="M777.4,427.6H434.1l127.5-127.5c8.8-8.8,8.8-23.1,0-31.9L508,214.6c-8.8-8.8-23.1-8.8-31.9,0L206.6,484
	c-8.8,8.8-8.8,23.1,0,31.9l269.5,269.5c8.8,8.8,23.1,8.8,31.9,0l53.6-53.6c8.8-8.8,8.8-23.1,0-31.9L424.7,563.1h352.7
	c12.5,0,22.6-10.1,22.6-22.6v-90.3C800,437.7,789.9,427.6,777.4,427.6L777.4,427.6z"/>
</svg>
