<?xml version="1.0" encoding="utf-8"?>
<!-- Generator: Adobe Illustrator 25.0.0, SVG Export Plug-In . SVG Version: 6.00 Build 0)  -->
<svg version="1.1" id="圖層_1" xmlns="http://www.w3.org/2000/svg" xmlns:xlink="http://www.w3.org/1999/xlink" x="0px" y="0px"
	 viewBox="0 0 1000 1000" style="enable-background:new 0 0 1000 1000;" xml:space="preserve">
<path d="M222.6,572.4h343.3L438.4,699.9c-8.8,8.8-8.8,23.1,0,31.9l53.6,53.6c8.8,8.8,23.1,8.8,31.9,0L793.4,516
	c8.8-8.8,8.8-23.1,0-31.9L523.9,214.6c-8.8-8.8-23.1-8.8-31.9,0l-53.6,53.6c-8.8,8.8-8.8,23.1,0,31.9l136.9,136.8H222.6
	c-12.5,0-22.6,10.1-22.6,22.6v90.3C200,562.3,210.1,572.4,222.6,572.4L222.6,572.4z"/>
</svg>
