<svg id="圖層_1" data-name="圖層 1" xmlns="http://www.w3.org/2000/svg" viewBox="0 0 1000 1000"><path d="M62.5,221.7v24.4a68.58,68.58,0,0,0,68.6,68.6H868.8a68.58,68.58,0,0,0,68.6-68.6V221.7a68.58,68.58,0,0,0-68.6-68.6H131.1a68.58,68.58,0,0,0-68.6,68.6Zm68.6,359.4H868.8a68.58,68.58,0,0,0,68.6-68.6V488a68.58,68.58,0,0,0-68.6-68.6H131.1A68.58,68.58,0,0,0,62.5,488v24.4a68.6,68.6,0,0,0,68.6,68.7Zm0,266.3H868.8a68.58,68.58,0,0,0,68.6-68.6V754.4a68.58,68.58,0,0,0-68.6-68.6H131.1a68.58,68.58,0,0,0-68.6,68.6v24.4a68.58,68.58,0,0,0,68.6,68.6Z"/></svg>