<?xml version="1.0" encoding="utf-8"?>
<!-- Generator: Adobe Illustrator 25.0.0, SVG Export Plug-In . SVG Version: 6.00 Build 0)  -->
<svg version="1.1" id="圖層_1" xmlns="http://www.w3.org/2000/svg" xmlns:xlink="http://www.w3.org/1999/xlink" x="0px" y="0px"
	 viewBox="0 0 16 16" style="enable-background:new 0 0 16 16;" xml:space="preserve">
<path d="M5.7,13.5L1.3,9.2c-0.1-0.1-0.1-0.3,0-0.4c0,0,0,0,0,0l1.5-1.5c0.1-0.1,0.3-0.1,0.4,0c0,0,0,0,0,0l2.4,2.4
	c0.1,0.1,0.3,0.1,0.4,0c0,0,0,0,0,0c2.3-2.4,4.5-4.8,6.8-7.2c0.1-0.1,0.3-0.1,0.4,0L14.7,4c0.1,0.1,0.1,0.3,0,0.4
	c-2.9,3.1-5.8,6.1-8.6,9.2C5.9,13.6,5.8,13.6,5.7,13.5C5.7,13.5,5.7,13.5,5.7,13.5z"/>
</svg>
