<svg id="圖層_1" data-name="圖層 1" xmlns="http://www.w3.org/2000/svg" viewBox="0 0 1000 1000"><path d="M764.54,130.17C683.35,212.75,602,295.58,519.7,379.3a27.21,27.21,0,0,1-39.08,0Q357.7,254.48,235.4,130.17a27.18,27.18,0,0,0-39,.13c-19.79,20.42-39.21,40.72-59.38,61.52a28.87,28.87,0,0,0,.25,40c79.56,80.94,161.25,164,244.08,248.37a28.57,28.57,0,0,1,0,39.84Q258.09,645.57,135.93,769.75a28.15,28.15,0,0,0,.25,39.59l60.26,60.39a27.6,27.6,0,0,0,39.21-.12L480.49,620.86a27.32,27.32,0,0,1,39.08,0l244.84,249a27.33,27.33,0,0,0,39.09.12c20.17-20.42,40-40.59,60-60.89a28.58,28.58,0,0,0,.12-39.84Q743,646.32,618.79,519.87a28.47,28.47,0,0,1,0-39.84Q742.11,354.47,864,230.15a28.31,28.31,0,0,0-.12-39.71L803.62,129.8a27.55,27.55,0,0,0-39.08.37Z"/></svg>