<?xml version="1.0" encoding="utf-8"?>
<!-- Generator: Adobe Illustrator 25.0.0, SVG Export Plug-In . SVG Version: 6.00 Build 0)  -->
<svg version="1.1" id="圖層_1" xmlns="http://www.w3.org/2000/svg" xmlns:xlink="http://www.w3.org/1999/xlink" x="0px" y="0px"
	 viewBox="0 0 1000 1000" style="enable-background:new 0 0 1000 1000;" xml:space="preserve">
<path d="M749.2,297.4c-39.9-38.9-79.6-78.2-119-117.5c-9.1-9-19.6-12.6-32.1-12.6c-163.6,0.1-327.2,0.1-490.8,0.1
	c-24.3,0-36.2,12.1-36.2,36.5v758.5c0,26.8,10.3,37.4,36.9,37.5c44.2,0.1,88.5,0,132.7,0h484.1c28,0,37.6-9.6,37.6-37.4
	c0-210.8-0.1-421.6,0.2-632.5C762.5,316.8,758.6,306.6,749.2,297.4z M690,940.2c-180-0.3-360-0.2-540-0.3c-23,0-19,1.7-19.1-18.9
	c-0.1-112.3-0.1-224.6-0.1-336.9c0-114.5,0.1-229.1-0.2-343.6c0-10.2,3.3-13.3,13.3-13.3c99.3,0.3,198.6,0.3,297.9,0.3
	c43.1,0,86.3-0.2,129.4-0.1c15.9,0,15.9,0.3,15.9,16.7c0,24.2-0.3,48.3,0,72.5c0.2,19.4,5.6,24.4,24.6,24.4c26.8,0,53.6,0.5,80.3,0
	c8.4-0.1,10.7,2.2,10.7,10.6c-0.3,110.1-0.2,220.1-0.2,330.3c0,81.8-0.1,163.6,0.3,245.5C702.9,937.4,700.2,940.2,690,940.2
	L690,940.2z M929.1,478.8c0-104.9-0.1-209.7,0.2-314.6c0-14-4-25-14.1-34.8c-38.4-37.3-76.7-74.7-114.3-112.8
	C789.2,4.8,776.6,0,760.3,0C614.5,0.3,468.8,0.2,323,0.2c-17.1,0-34.2-0.4-51.3,0c-22.3,0.5-33.6,11.9-33.9,34
	c-0.3,18.9,0.2,37.9,0,56.9c-0.1,6.1,1.7,8.7,8.2,8.4c10.8-0.5,21.6-0.1,32.3-0.1c19.3,0,19,0,19.3-19.3c0.4-21.4-4.1-19.9,20.5-20
	c93.3-0.1,186.6-0.1,280-0.1c47.6,0,95.2,0.2,142.8-0.1c9.7-0.1,13.5,2.5,13.2,13.1c-0.8,26.4-0.5,52.8-0.3,79.2
	c0.1,15.6,6.4,21.4,21.7,21.5c27.2,0,54.3,0.7,81.4,0c10.2-0.3,12.4,3.3,12.3,12.7c-0.4,62.8-0.2,125.7-0.2,188.5
	c-0.1,123.5-0.2,246.9-0.2,370.3c0,26.9,0.2,26.9-27.2,27.2c-0.8,0-1.5,0.1-2.2,0c-6-0.5-8.9,2-8.8,8.3c0.2,14.5,0.2,29,0,43.5
	c-0.1,6.2,2.5,8.6,8.6,8.6c20.1-0.2,40.2,0.4,60.2-0.4c17.8-0.8,27.6-11.1,29.3-28.9c0.4-3.7,0.2-7.4,0.2-11.1
	C929.1,687.8,929.1,583.3,929.1,478.8L929.1,478.8z"/>
</svg>
