<svg id="圖層_1" data-name="圖層 1" xmlns="http://www.w3.org/2000/svg" viewBox="0 0 24 24"><path d="M12,.3A12,12,0,0,0,8.21,23.68c.6.11.79-.26.79-.57V20.87c-3.34.73-4-1.41-4-1.41A3.19,3.19,0,0,0,3.63,17.7C2.55,17,3.72,17,3.72,17a2.52,2.52,0,0,1,1.84,1.24,2.55,2.55,0,0,0,3.49,1,2.59,2.59,0,0,1,.76-1.6c-2.66-.3-5.47-1.33-5.47-5.93A4.63,4.63,0,0,1,5.58,8.45,4.31,4.31,0,0,1,5.7,5.27S6.7,5,9,6.5a11.49,11.49,0,0,1,3-.4,11.62,11.62,0,0,1,3,.4C17.3,5,18.3,5.27,18.3,5.27a4.25,4.25,0,0,1,.12,3.18,4.63,4.63,0,0,1,1.24,3.22c0,4.61-2.81,5.62-5.48,5.92A2.86,2.86,0,0,1,15,19.81v3.3c0,.31.19.69.8.57A12,12,0,0,0,12,.3Z"/></svg>