<svg id="圖層_1" data-name="圖層 1" xmlns="http://www.w3.org/2000/svg" viewBox="0 0 15.98 15.98"><path d="M7.21,5.38a1.09,1.09,0,0,1-.32-.8,1,1,0,0,1,.32-.8A1.11,1.11,0,0,1,8,3.46a1.06,1.06,0,0,1,.8.32,1.15,1.15,0,0,1,.32.8,1.06,1.06,0,0,1-.32.8,1.19,1.19,0,0,1-.8.34A1.11,1.11,0,0,1,7.21,5.38ZM9.15,8a1.23,1.23,0,0,0-.35-.79A1.2,1.2,0,0,0,8,6.86H6.87a1.33,1.33,0,0,0-.79.35A1.16,1.16,0,0,0,5.73,8H6.87v3.43a1.11,1.11,0,0,0,.35.78,1.08,1.08,0,0,0,.79.36H9.15a1.1,1.1,0,0,0,.79-.36,1.07,1.07,0,0,0,.35-.78H9.15V8ZM8,1.51A6.5,6.5,0,1,0,14.52,8,6.5,6.5,0,0,0,8,1.51ZM8,0A8,8,0,1,1,0,8,8,8,0,0,1,8,0Z" transform="translate(-0.02)" fill-rule="evenodd"/></svg>