<svg id="圖層_1" data-name="圖層 1" xmlns="http://www.w3.org/2000/svg" viewBox="0 0 512 512"><path d="M0,108.43V403.56a3.81,3.81,0,0,0,6.09,3.05L198.68,259.05a3.79,3.79,0,0,0,.69-5.33,3.52,3.52,0,0,0-.69-.7L6.1,105.43a3.81,3.81,0,0,0-6.1,3Z"/><path d="M21.4,96.32l232.26,178a3.83,3.83,0,0,0,4.63,0l232.26-178a3.81,3.81,0,0,0-2.28-6.85H23.72a3.81,3.81,0,0,0-2.32,6.85Z"/><path d="M313.28,259.05l192.63,147.6a3.81,3.81,0,0,0,6.09-3V108.38a3.81,3.81,0,0,0-6.09-3L313.28,253a3.81,3.81,0,0,0-.76,5.33A3.42,3.42,0,0,0,313.28,259.05Z"/><path d="M298.09,268.19a3.78,3.78,0,0,0-4.62,0L261,293a8.25,8.25,0,0,1-10,0l-32.46-24.85a3.8,3.8,0,0,0-4.63,0L21.4,415.7a3.81,3.81,0,0,0,2.28,6.85H488.24a3.81,3.81,0,0,0,2.29-6.85Z"/></svg>