<svg id="圖層_1" data-name="圖層 1" xmlns="http://www.w3.org/2000/svg" xmlns:xlink="http://www.w3.org/1999/xlink" viewBox="0 0 241.7 28.76"><defs><clipPath id="clip-path"><rect width="63.59" height="28.76" fill="none"/></clipPath></defs><g clip-path="url(#clip-path)"><path d="M16.93,14.38a14.39,14.39,0,0,0-1.09-5.5,14.29,14.29,0,0,0-3.12-4.67A14.45,14.45,0,0,0,8.06,1.09,14.39,14.39,0,0,0,2.56,0,14.39,14.39,0,0,0,3.65,5.5a14.29,14.29,0,0,0,3.12,4.67,14.45,14.45,0,0,0,4.66,3.12,14.39,14.39,0,0,0,5.5,1.09Z" fill="#FFBF6B"/><path d="M16.93,14.38A14.37,14.37,0,0,0,2.56,28.76a14.39,14.39,0,0,0,5.5-1.09,14.45,14.45,0,0,0,4.66-3.12,14.29,14.29,0,0,0,3.12-4.67,14.39,14.39,0,0,0,1.09-5.5Z" fill="#FFBF6B"/><path d="M2.56,16.94A2.56,2.56,0,1,0,0,14.38,2.56,2.56,0,0,0,2.56,16.94Z" fill="#ffffff"/><path d="M46.65,14.38A14.37,14.37,0,0,0,61,28.76,14.37,14.37,0,0,0,46.65,14.38Z" fill="#FFBF6B"/><path d="M46.65,14.38A14.41,14.41,0,0,0,56.8,10.16,14.39,14.39,0,0,0,61,0,14.37,14.37,0,0,0,46.65,14.38Z" fill="#FFBF6B"/><path d="M61,16.94a2.56,2.56,0,1,0-2.56-2.56A2.56,2.56,0,0,0,61,16.94Z" fill="#ffffff"/><path d="M28.81.29l2.94,16.59h.08L34.77.29H45.2v28H38.38V7.43H38.3L34.42,28.29H29.17L25.28,7.43H25.2V28.29H18.38V.29Z" fill="#1860C3"/></g><path d="M79.67,5.14V23.7H84.2V9.87h0L86.82,23.7h3.49L92.88,9.87h.05V23.7h4.53V5.14H90.54l-2,11h0l-2-11Zm19.89,0V23.7h11.23V19.75h-6.4V16.06h5.78v-3.8h-5.78V9.09h6.17V5.14ZM115,9.25V23.7h4.84V9.25h3.64V5.14H111.41V9.25Zm9.39-4.11V23.7h4.83V5.14Zm14.34,5.64v1h4.68V10.65a7.86,7.86,0,0,0-.34-2.42,4.14,4.14,0,0,0-1-1.84,4.47,4.47,0,0,0-1.84-1.2,8.13,8.13,0,0,0-2.78-.42,8.5,8.5,0,0,0-3.15.52,4.34,4.34,0,0,0-2,1.64,7.66,7.66,0,0,0-1.12,3,27.34,27.34,0,0,0-.31,4.5,31.63,31.63,0,0,0,.26,4.45,7.91,7.91,0,0,0,1,3,4,4,0,0,0,2,1.63,9.42,9.42,0,0,0,3.33.5,9.91,9.91,0,0,0,2.26-.26,4.57,4.57,0,0,0,2-.94,5,5,0,0,0,1.38-2,8.37,8.37,0,0,0,.52-3.2V16.24h-4.68c0,.88,0,1.62-.08,2.21a6.37,6.37,0,0,1-.2,1.38,1.55,1.55,0,0,1-.45.75,1.18,1.18,0,0,1-.72.21,1.34,1.34,0,0,1-.89-.29,2,2,0,0,1-.49-1,11.13,11.13,0,0,1-.21-1.95c0-.83,0-1.87,0-3.12s0-2.28,0-3.09a11.07,11.07,0,0,1,.21-2,2,2,0,0,1,.49-1,1.29,1.29,0,0,1,.89-.29,1.07,1.07,0,0,1,1,.57A5,5,0,0,1,138.73,10.78Zm6.37-5.64V23.7h4.53V9.87h.05l2.57,13.83h3.49l2.57-13.83h.05V23.7h4.53V5.14H156l-1.95,11H154L152,5.14Zm26,3.79-1.33,7.88h2.71L171.1,8.93Zm3.07-3.79,4.52,18.56h-5.15L173,20.45h-3.85l-.49,3.25h-5.07L168,5.14Zm12.73,5.64v1h4.68V10.65a8.18,8.18,0,0,0-.34-2.42,4.34,4.34,0,0,0-1-1.84,4.51,4.51,0,0,0-1.85-1.2,8.09,8.09,0,0,0-2.78-.42,8.5,8.5,0,0,0-3.15.52,4.39,4.39,0,0,0-2.05,1.64,7.82,7.82,0,0,0-1.12,3,27.34,27.34,0,0,0-.31,4.5,33.22,33.22,0,0,0,.26,4.45,8.08,8.08,0,0,0,1,3,4.09,4.09,0,0,0,2,1.63,9.5,9.5,0,0,0,3.33.5,9.91,9.91,0,0,0,2.26-.26,4.55,4.55,0,0,0,2-.94,5.12,5.12,0,0,0,1.38-2,8.56,8.56,0,0,0,.52-3.2V16.24H187c0,.88,0,1.62-.08,2.21a7,7,0,0,1-.21,1.38,1.47,1.47,0,0,1-.44.75,1.19,1.19,0,0,1-.73.21,1.31,1.31,0,0,1-.88-.29,2,2,0,0,1-.5-1,13.48,13.48,0,0,1-.21-1.95c0-.83-.05-1.87-.05-3.12s0-2.28.05-3.09a13.32,13.32,0,0,1,.21-2,2,2,0,0,1,.5-1,1.26,1.26,0,0,1,.88-.29,1.05,1.05,0,0,1,1,.57A5,5,0,0,1,186.85,10.78Zm6.55-5.64V23.7h4.84V16.06h3V23.7H206V5.14H201.2V12h-3V5.14Zm14.75,0V23.7H213V5.14Zm6.93,0V23.7h4.53V12.24h0l3.22,11.46h5.31V5.14h-4.53V16.58h0L220.49,5.14Zm15.39,0V23.7H241.7V19.75h-6.39V16.06h5.77v-3.8h-5.77V9.09h6.16V5.14Z" fill="#fff"/></svg>