<svg xmlns:xlink="http://www.w3.org/1999/xlink" xmlns="http://www.w3.org/2000/svg" width="181" height="64" viewBox="0 0 181 64" fill="none">
<g clip-path="url(#clip0_6_57)">
<path d="M109.53 29.0505V42.686C109.53 42.7134 109.511 42.7408 109.484 42.7469C107.304 43.3137 105.158 43.9688 103.054 44.7123C103.015 44.7275 102.972 44.697 102.972 44.6544V29.0505C102.972 26.3264 101.426 24.7785 99.0117 24.7785C96.5976 24.7785 95.0511 26.3264 95.0511 29.0505V47.9909C95.0511 48.0153 95.0359 48.0366 95.0146 48.0488C92.8166 49.1031 90.6704 50.2518 88.5851 51.495C88.5425 51.5194 88.4907 51.4889 88.4907 51.4401V29.0505C88.4907 22.7949 92.7009 18.5809 99.0117 18.5809C105.322 18.5809 109.533 22.7949 109.533 29.0505H109.53Z" fill="white"/>
<path d="M172.768 29.0444L172.759 52.2445C172.759 52.2933 172.704 52.3238 172.662 52.2994C170.583 51.0074 168.442 49.8039 166.241 48.7039C166.22 48.6917 166.208 48.6704 166.208 48.649V29.0444C166.208 26.3203 164.661 24.7724 162.247 24.7724C159.833 24.7724 158.287 26.3203 158.287 29.0444V45.1328C158.287 45.1754 158.244 45.2059 158.201 45.1906C156.098 44.4106 153.955 43.7098 151.772 43.1034C151.745 43.0973 151.726 43.0699 151.726 43.0425V29.0413C151.726 22.7858 155.937 18.5717 162.247 18.5717C168.558 18.5717 172.768 22.7858 172.768 29.0413V29.0444Z" fill="white"/>
<path d="M131.202 18.5443H120.991C120.958 18.5443 120.927 18.5717 120.927 18.6082V40.5591C120.927 40.5957 120.961 40.6261 120.998 40.6231C123.938 40.2971 126.928 40.1325 129.96 40.1325C132.404 40.1325 134.828 40.2392 137.217 40.4555C137.233 40.4555 137.248 40.4555 137.26 40.4464C139.921 38.6699 141.47 35.4553 141.479 32.4174V28.8981C141.479 22.6395 137.455 18.5503 131.205 18.5503L131.202 18.5443ZM134.916 32.5027C134.916 34.7454 133.098 36.5644 130.858 36.5644H127.549C127.515 36.5644 127.485 36.537 127.485 36.5004V24.8059C127.485 24.7724 127.512 24.7419 127.549 24.7419H130.855C133.098 24.7419 134.916 26.561 134.916 28.8067V32.5058V32.5027Z" fill="white"/>
<path d="M60.176 19.6381V25.7078C60.176 25.7414 60.2034 25.7718 60.24 25.7718H67.6101C67.6436 25.7718 67.6741 25.7993 67.6741 25.8358V62.8817C67.6741 62.9152 67.7015 62.9457 67.738 62.9457H74.1705C74.204 62.9457 74.2345 62.9183 74.2345 62.8817V25.8328C74.2345 25.7993 74.2619 25.7688 74.2984 25.7688H79.7842C79.8116 25.7688 79.8359 25.7505 79.845 25.7231L81.7081 19.6534C81.7203 19.6138 81.6899 19.5711 81.6473 19.5711H60.243C60.2095 19.5711 60.1791 19.5985 60.1791 19.6351L60.176 19.6381Z" fill="white"/>
<path d="M13.7601 33.1944C13.7266 33.1944 13.6962 33.167 13.6962 33.1304V28.6391C13.6962 25.9973 11.7844 25.3483 10.4905 25.3483C9.19673 25.3483 7.12358 25.9973 7.12358 28.6391V33.0756C7.12358 34.5504 7.94249 35.1963 8.66702 35.8057L18.0129 43.5574C19.8151 45.0809 20.8471 47.5125 20.8471 49.6759V54.4445C20.8471 57.4519 19.9582 59.8042 18.2047 61.4405C16.4086 63.1133 13.7905 63.9604 10.4236 63.9604C7.05661 63.9604 4.43854 63.1133 2.64242 61.4405C0.888919 59.8042 -0.00305176 57.4519 -0.00305176 54.4445V50.5016C-0.00305176 50.4681 0.0243467 50.4376 0.0608779 50.4376H7.09009C7.12358 50.4376 7.15402 50.465 7.15402 50.5016V54.8315C7.15402 57.4732 9.1328 57.8145 10.4236 57.8145C11.7143 57.8145 13.7236 57.4763 13.7236 54.8315V49.6332C13.7236 48.7648 13.3095 47.5978 12.585 46.9884L2.83421 39.3434C1.032 37.8168 -7.4897e-06 35.7021 -7.4897e-06 33.5357V28.0724C-7.4897e-06 25.0649 0.888919 22.7126 2.64546 21.0764C4.44158 19.4035 7.12358 18.5565 10.4936 18.5565C13.8636 18.5565 16.4147 19.4035 18.2078 21.0764C19.9613 22.7126 20.8532 25.0649 20.8532 28.0724V33.1304C20.8532 33.164 20.8258 33.1944 20.7893 33.1944H13.7601Z" fill="white"/>
<path d="M45.2622 19.5742H36.5799C36.5495 19.5742 36.5221 19.5955 36.516 19.626L29.3559 62.8665C29.3498 62.9061 29.3802 62.9396 29.4198 62.9396H35.8554C35.8858 62.9396 35.9132 62.9183 35.9193 62.8878L40.8571 33.1182L45.8649 62.8878C45.871 62.9183 45.8954 62.9396 45.9289 62.9396H52.3675C52.4071 62.9396 52.4375 62.9031 52.4314 62.8665L45.3322 19.626C45.3261 19.5955 45.3018 19.5742 45.2683 19.5742H45.2622Z" fill="white"/>
<path d="M129.731 0.0198884L125.279 4.47557C125.254 4.50056 125.254 4.54107 125.279 4.56606L129.731 9.02173C129.756 9.04672 129.796 9.04672 129.821 9.02174L134.273 4.56606C134.298 4.54107 134.298 4.50055 134.273 4.47557L129.821 0.0198904C129.796 -0.00509836 129.756 -0.00510015 129.731 0.0198884Z" fill="#C3A56E"/>
<path d="M135.643 62.8939C135.649 62.9213 135.674 62.9427 135.704 62.9427H142.383C142.426 62.9427 142.453 62.9061 142.444 62.8635L138.188 47.8812C136 47.7075 133.789 47.6008 131.555 47.5643L135.643 62.8939Z" fill="white"/>
<path d="M102.969 51.1537V53.5334C102.969 56.2575 101.42 57.8054 99.0087 57.8054C96.5976 57.8054 95.0511 56.3946 95.0146 53.7345C92.8988 54.5268 90.8226 55.3952 88.7921 56.3306C89.8667 61.0109 93.6903 64.003 99.0087 64.003C105.322 64.003 109.53 59.789 109.53 53.5334V49.5784C107.31 50.0293 105.122 50.5534 102.969 51.1506V51.1537Z" fill="white"/>
<path d="M120.927 62.8757C120.927 62.9092 120.955 62.9397 120.991 62.9397H127.424C127.457 62.9397 127.488 62.9122 127.488 62.8757V47.5795C125.281 47.6313 123.092 47.7471 120.927 47.936V62.8757Z" fill="white"/>
<path d="M166.107 54.6121C165.742 56.6505 164.311 57.7901 162.244 57.7901C159.833 57.7901 158.284 56.2422 158.284 53.5182V51.562C156.131 50.9282 153.943 50.3706 151.723 49.8831V53.5182C151.723 59.7737 155.933 63.9878 162.244 63.9878C167.155 63.9878 171.06 61.3765 172.287 56.9248C170.284 55.9649 168.238 55.0752 166.15 54.2556C166.138 54.4018 166.126 54.5298 166.11 54.6151L166.107 54.6121Z" fill="white"/>
<path d="M180.909 61.0962C166.951 49.8526 149.215 43.1217 129.905 43.1217C110.595 43.1217 92.8592 49.8526 78.9013 61.0962C78.6699 61.2821 78.9195 61.6386 79.1722 61.4832C79.8511 61.0627 80.5391 60.6574 81.2301 60.2552C82.0947 59.7646 82.8954 59.3167 83.6321 58.9084C85.3156 57.9973 87.0356 57.1381 88.7891 56.3306C90.8196 55.3952 92.8958 54.5298 95.0115 53.7345C97.6022 52.7625 100.257 51.9002 102.966 51.1506C105.119 50.5534 107.307 50.0293 109.527 49.5784C113.244 48.8227 117.046 48.2712 120.924 47.936C123.089 47.7502 125.278 47.6313 127.485 47.5795C128.288 47.5612 129.092 47.5491 129.902 47.5491C130.453 47.5491 131.004 47.5551 131.555 47.5643C133.786 47.5978 135.997 47.7075 138.188 47.8812C142.81 48.2499 147.33 48.9233 151.723 49.8861C153.942 50.3737 156.131 50.9343 158.284 51.565C160.963 52.3512 163.587 53.2501 166.15 54.2556C168.238 55.0752 170.284 55.965 172.287 56.9248C175.167 58.3051 177.953 59.8256 180.638 61.4832C180.89 61.6386 181.14 61.2851 180.909 61.0962Z" fill="#C3A56E"/>
</g>
<defs>
<clipPath id="clip0_6_57">
<rect width="181" height="64" fill="white"/>
</clipPath>
</defs>
</svg>