<svg xmlns:xlink="http://www.w3.org/1999/xlink" xmlns="http://www.w3.org/2000/svg" data-v-5cf48e1e="" class="svg-icon" width="903.88"  height="85.33" ><defs><symbol xmlns="http://www.w3.org/2000/svg" viewBox="0 0 903.88 85.33" id="logo-white"><rect x="390.12" y="0.3" width="24.22" height="24.22" fill="#B01F28"></rect><polygon points="387.46 50.35 373.22 32.86 352.03 32.86 326.6 0.27 301.94 0.27 335.18 42.89 302.26 85.2 326.92 85.2 347.51 58.74 352.46 51.99 364.09 51.99 389.93 85.2 414.58 85.2 387.46 50.35" fill="#FFFFFF"></polygon><rect x="552.2" y="30.57" width="24.22" height="24.22" fill="#329E63"></rect><path d="M576.43.37H506c-21.21,0-39.16,14.84-42.7,35.28h0a42.41,42.41,0,0,0-.6,7C462.74,66,482.16,85,506,85h70.39V67.73H506c-14.13,0-25.62-11.23-25.62-25a24.32,24.32,0,0,1,.83-6.3A25.58,25.58,0,0,1,506,17.64h70.39Z" fill="#FFFFFF"></path><rect x="794.99" y="61.06" width="24.22" height="24.22" fill="#D5B45C"></rect><polygon points="883.77 0.33 883.77 66.82 821.98 0.33 795.26 0.33 795.26 0.33 794.97 0.33 794.97 23.25 819.34 23.25 874.9 85.3 903.88 85.3 903.88 0.33 883.77 0.33" fill="#FFFFFF"></polygon><path d="M22.51,64.43c-1.42-1.86-2.19-4.37-2.34-7.71-.08-1.3-.14-3.78-.18-7.54V.33H0V43.77C0,52.48.18,58.6.41,61.92.9,69.08,3.12,74.5,7.2,78.52,10.92,82.18,16.88,84.37,25,85c2.88.19,48.9.29,54.13.31h2.08V69H39.6C30.59,69,25,67.52,22.51,64.43Z" fill="#FFFFFF"></path><path d="M655.4.33A18.32,18.32,0,0,0,637,18.54V67.08A18.32,18.32,0,0,0,655.4,85.3h78.81V68.78H664.46a7.33,7.33,0,0,1-7.37-7.29V24.43a7.33,7.33,0,0,1,7.37-7.28h69.75V.33Z" fill="#FFFFFF"></path><rect x="683.67" y="34.1" width="50.55" height="17.43" fill="#FFFFFF"></rect><path d="M221.66.09V46q0,4.2-.25,7.37a18.57,18.57,0,0,1-3.22,10.06c-1.83,2.55-5,4-9.35,4.47-3.54.4-9.25.61-17.37.66s-13.82-.26-17.37-.66c-4.38-.42-7.52-1.92-9.35-4.47a18.57,18.57,0,0,1-3.21-10.06c-.1-1.2-.17-18.46-.21-33.1V0h-.05V0h-20V4.35c0,9.2.25,55.56.75,59.22a26.63,26.63,0,0,0,3.5,10.35,17.31,17.31,0,0,0,1.58,2.41,19.27,19.27,0,0,0,8.17,5.79,33,33,0,0,0,7.8,2.17,50.73,50.73,0,0,0,5.12.42c2.45.14,6.4.25,11.81.33,2.66,0,5.59.08,8.81.1l2.4,0h.46l2.41,0c3.22,0,6.14,0,8.8-.1q8.13-.12,11.81-.33a50.45,50.45,0,0,0,5.12-.42,33.17,33.17,0,0,0,7.81-2.17,19.29,19.29,0,0,0,8.16-5.79,16.45,16.45,0,0,0,1.58-2.41,26.47,26.47,0,0,0,3.5-10.35,167.34,167.34,0,0,0,.76-19.39V.09Z" fill="#FFFFFF"></path></symbol></defs><use xlink:href="#logo-white"></use></svg>