<svg width="191" height="50" viewBox="0 0 191 50" fill="none" xmlns="http://www.w3.org/2000/svg">
<g clip-path="url(#clip0_1894_447)">
<path fill-rule="evenodd" clip-rule="evenodd" d="M66.4068 23.7322V19.6132H58.903V4.16059H54.1921V23.7322H66.4068ZM91.7415 23.7322L83.6894 4.16059H79.143L71.0088 23.7322H76.1027L76.9887 21.3411L78.8848 16.1022H78.869L81.334 9.38546L82.9217 13.8096L85.9443 22.2183L86.5376 23.7322H91.7415V23.7322ZM114.091 16.3514V4.16059H109.407V15.9644C109.407 18.0649 108.422 20.0003 105.764 20.0003C103.135 20.0003 102.122 18.0649 102.122 15.9644V4.16059H97.4662V16.3514C97.4662 21.0506 100.643 24.2571 105.737 24.2571C110.804 24.2571 114.091 21.0506 114.091 16.3514ZM140.302 23.7322V4.16059H135.755L135.864 16.9317H135.783L128.004 4.16059H122.664V23.7322H127.21L127.1 10.933H127.183L134.987 23.7322H140.302ZM166.156 21.0229L162.896 17.927C162.075 19.0879 160.623 19.9174 158.788 19.9174C155.557 19.9174 153.284 17.4847 153.284 13.9187C153.284 10.463 155.611 7.91969 158.871 7.91969C160.349 7.91969 161.911 8.5007 162.787 9.71724L165.965 6.50998C164.348 4.63024 161.418 3.63489 158.706 3.63489C152.791 3.63489 148.19 7.64321 148.19 13.9187C148.19 20.0552 152.654 24.2571 158.625 24.2571C161.883 24.2571 164.458 23.0133 166.156 21.0229ZM189.874 23.7322V4.16059H185.191V11.569H177.632V4.16059H172.948V23.7322H177.632V15.5496H185.191V23.7322H189.874Z" fill="white"/>
<path d="M57.5971 36.1635H54.3228V47.1215H56.4054V42.5499H57.5698C59.9338 42.5499 61.4025 41.3239 61.4025 39.3499C61.4025 37.3542 59.98 36.1635 57.5971 36.1635ZM57.5153 40.5827H56.4054V38.1447H57.5153C59.3199 38.1447 59.3199 38.9889 59.3199 39.3495C59.3199 39.879 59.133 40.5827 57.5153 40.5827Z" fill="white"/>
<path d="M73.7478 36.1635H71.6648V47.1215H78.241V45.1129H73.7478V36.1635Z" fill="white"/>
<path d="M91.2654 36.1638L86.6248 47.1215H88.9066L89.9554 44.5369H94.2025L95.2644 47.1215H97.556L92.9454 36.1638H91.2654ZM90.7776 42.4999L92.0778 39.3018L93.378 42.4999H90.7776Z" fill="white"/>
<path d="M105.097 38.1723H108.324V47.1215H110.407V38.1723H113.634V36.1635H105.097V38.1723Z" fill="white"/>
<path d="M123.42 47.1215H125.503V42.4662H129.996V40.4714H125.503V38.1723H130.337V36.1635H123.42V47.1215Z" fill="white"/>
<path d="M145.575 35.9135C142.397 35.9135 140 38.3765 140 41.6424C140 44.9088 142.397 47.3718 145.575 47.3718C148.754 47.3718 151.151 44.9088 151.151 41.6424C151.151 38.3765 148.754 35.9135 145.575 35.9135ZM145.575 45.3629C143.318 45.3629 142.137 43.4915 142.137 41.6424C142.137 39.7869 143.318 37.9083 145.575 37.9083C147.833 37.9083 149.014 39.7869 149.014 41.6424C149.014 43.4915 147.833 45.3629 145.575 45.3629Z" fill="white"/>
<path d="M168.766 39.3495C168.766 37.3247 167.364 36.1635 164.919 36.1635H161.536V47.1215H163.619V42.5219H164.386L167.055 47.1215H169.551L166.627 42.2625C167.956 41.8307 168.766 40.7425 168.766 39.3495ZM164.77 40.5411H163.619V38.1447H164.811C166.683 38.1447 166.683 38.9586 166.683 39.3499C166.683 39.6442 166.683 40.5411 164.77 40.5411Z" fill="white"/>
<path d="M187.323 36.1635L184.458 43.3923L181.557 36.1635H179.137V47.1215H181.22V40.7626L183.813 47.1215H185.067L187.661 40.763V47.1215H189.744V36.1635H187.323Z" fill="white"/>
<path fill-rule="evenodd" clip-rule="evenodd" d="M39.6367 31.3318V36.2881V41.8834L29.9543 44.6816L20.2718 47.4787L10.5882 44.6809L0.906494 41.8834V36.2881V31.3318L10.5882 34.1292L20.2718 36.9271L29.9543 34.13L39.6367 31.3318Z" fill="#FF6E00"/>
<path fill-rule="evenodd" clip-rule="evenodd" d="M20.2718 3.52771L37.1132 19.1478L31.6504 28.6279L20.2718 18.7633L9.06775 28.6279L3.42969 19.1478L20.2718 3.52771Z" fill="#036BE3"/>
<path fill-rule="evenodd" clip-rule="evenodd" d="M20.2714 28.5408L27.7685 31.1333L20.2714 33.7259L12.7744 31.1333L20.2714 28.5408Z" fill="#FF6E00"/>
</g>
<defs>
<clipPath id="clip0_1894_447">
<rect width="191" height="50" fill="white"/>
</clipPath>
</defs>
</svg>
