<svg alt="Logo" xmlns="http://www.w3.org/2000/svg" height="30" width="70" viewBox="0 0 70 30"><path d="M39.88.24l7.19,29.52H38.89l-.79-5.17H32l-.78,5.17H23.14L30.21.24ZM35,6.28,32.89,18.8h4.3L35.09,6.28Z" fill="#1860c3"></path><path d="M20.14,15.09A14.38,14.38,0,0,0,5.76.71,14.38,14.38,0,0,0,20.14,15.09Z" fill="#ffbf6b"></path><path d="M20.14,15.09A14.38,14.38,0,0,0,5.76,29.47,14.38,14.38,0,0,0,20.14,15.09Z" fill="#ffbf6b"></path><circle cx="5.76" cy="15.09" r="2.56" fill="#1860c3"></circle><path d="M49.86,15.09A14.38,14.38,0,0,0,64.24,29.47,14.38,14.38,0,0,0,49.86,15.09Z" fill="#ffbf6b"></path><path d="M49.86,15.09A14.38,14.38,0,0,0,64.24.71,14.38,14.38,0,0,0,49.86,15.09Z" fill="#ffbf6b"></path><circle cx="64.24" cy="15.09" r="2.56" fill="#1860c3"></circle></svg>