<?xml version="1.0" encoding="utf-8"?>
<!-- Generator: Adobe Illustrator 26.3.1, SVG Export Plug-In . SVG Version: 6.00 Build 0)  -->
<svg version="1.1" id="圖層_1" xmlns="http://www.w3.org/2000/svg" xmlns:xlink="http://www.w3.org/1999/xlink" x="0px" y="0px"
	 viewBox="0 0 1156 759" style="enable-background:new 0 0 1156 759;" xml:space="preserve">
<style type="text/css">
	.st0{fill:none;}
	.st1{fill:#6D6E70;}
	.st2{fill:#1F1F1F;}
</style>
<path class="st0" d="M1136,31c0-7.7-6.3-14-14-14H31c-7.7,0-14,6.3-14,14v265.6h1119V31z"/>
<path class="st0" d="M31,639.3h1091c7.7,0,14-6.3,14-14V296.6H17v328.6C17,633,23.3,639.3,31,639.3z"/>
<path class="st1" d="M1127,0H29C13,0,0,13,0,29v267.6v330.6c0,16,13,29,29,29h1098c16,0,29-13,29-29V296.6V29C1156,13,1143,0,1127,0
	z M1154,627.3c0,14.9-12.1,27-27,27H29c-14.9,0-27-12.1-27-27V296.6V29C2,14.1,14.1,2,29,2h1098c14.9,0,27,12.1,27,27v267.6V627.3z"
	/>
<path class="st2" d="M1127,2H29C14.1,2,2,14.1,2,29v267.6v330.6c0,14.9,12.1,27,27,27h1098c14.9,0,27-12.1,27-27V296.6V29
	C1154,14.1,1141.9,2,1127,2z M1151,627.3c0,13.3-10.8,24-24,24H29c-13.3,0-24-10.7-24-24V296.6V29C5,15.7,15.7,5,29,5h1098
	c13.2,0,24,10.7,24,24v267.6V627.3z"/>
<path d="M1127,5H29C15.7,5,5,15.7,5,29v267.6v330.6c0,13.3,10.7,24,24,24h1098c13.2,0,24-10.7,24-24V296.6V29
	C1151,15.7,1140.2,5,1127,5z M1136,625.3c0,7.7-6.3,14-14,14H31c-7.7,0-14-6.3-14-14V296.6V31c0-7.7,6.3-14,14-14h1091
	c7.7,0,14,6.3,14,14v265.6V625.3z"/>
</svg>
